<?xml version="1.0" standalone="yes"?>
<svg xmlns="http://www.w3.org/2000/svg" width="594" height="505">
<path style="fill:#ffffff; stroke:none;" d="M0 0L0 505L594 505L594 0L0 0z"/>
<path style="fill:#010101; stroke:none;" d="M480 21.4244C448.074 25.6286 405.525 42.0768 406.019 81C406.193 94.7652 413.122 107.642 423.004 116.91C427.411 121.043 435.882 124.342 438.262 130.043C440.115 134.484 439.171 155.291 446.059 154.203C456.211 152.599 463.789 141.451 474 139.408C481.075 137.993 489.641 140.414 497 139.91C521.273 138.248 547.945 129.015 563.1 109C579.734 87.0318 573.699 58.4381 553 41.4645C533.865 25.7736 504.506 18.1972 480 21.4244z"/>
<path style="fill:#ffafc9; stroke:none;" d="M446 148C455.563 145.187 463.311 135.888 473 133.988C479.188 132.775 487.508 135.073 494 134.996C504.155 134.875 514.34 132.555 524 129.564C559.1 118.697 584.398 79.4783 553.961 49.0394C527.155 22.2321 477.771 19.6131 445 35.7562C430.788 42.7572 417.625 53.2664 412.774 69C407.683 85.5108 414.54 102.567 427.004 113.826C431.285 117.694 438.931 120.406 442.012 125.213C445.551 130.737 445.724 141.568 446 148z"/>
<path style="fill:#010101; stroke:none;" d="M476 77L476 100C476.001 102.617 475.25 107.109 477.603 108.972C480.385 111.175 486.672 110 490 110C493.151 110 499.739 111.216 501.972 108.397C506.358 102.859 503 84.0093 503 77C523.053 76.9978 504.158 58.2358 498 49C496.248 46.3722 493.092 39.3601 489.144 39.9213C485.243 40.4759 481.954 48.0692 480 51C473.892 60.1619 456.649 76.9979 476 77z"/>
<path style="fill:#f2f106; stroke:none;" d="M489 46L473 72C485.842 72.4181 481 95.5396 481 105L498 105C498 95.5396 493.158 72.4181 506 72L489 46z"/>
<path style="fill:#010101; stroke:none;" d="M213 80.4244C169.753 86.1026 131.73 98.0439 97 125.666C78.1936 140.623 62.7214 159.463 50.3997 180C38.8619 199.23 30.7681 220.958 26.6111 243C22.3652 265.514 21.9351 288.351 25.2716 311C41.621 421.985 149.156 495.147 258 479.715C286.368 475.692 313.924 464.75 338 449.413C358.436 436.395 376.378 419.359 390.873 400C473.672 289.421 415.984 125.983 284 88.1412C261.818 81.7812 236.095 77.392 213 80.4244z"/>
<path style="fill:#99d9eb; stroke:none;" d="M213 85.4244C170.571 90.9979 131.262 102.844 98 131.3C77.4509 148.88 59.559 170.505 47.784 195C36.3004 218.889 29.8969 244.606 28.0895 271C19.8254 391.68 132.488 489.958 250 475.715C344.343 464.28 420.763 385.844 424.961 290C429.188 193.478 359.185 105.774 264 88.5756C247.574 85.6077 229.685 83.2326 213 85.4244z"/>
<path style="fill:#010101; stroke:none;" d="M288 162.53C263.783 168.01 262.188 207.975 270.313 226C274.621 235.556 283.179 246.145 295 243.47C319.779 237.863 319.953 199.331 312.935 181C309.085 170.943 300.163 159.778 288 162.53M143 163.532C118.34 169.368 118.047 208.587 125.066 227C129.095 237.57 138.528 248.334 151 245.471C175.813 239.775 175.954 200.417 168.934 182C164.927 171.487 155.448 160.587 143 163.532z"/>
<path style="fill:#f2f106; stroke:none;" d="M288 167.654C268.221 173.754 268.472 207.81 274.465 223C277.624 231.009 285.008 241.427 295 238.346C314.822 232.235 314.501 198.244 308.536 183C305.388 174.953 298.059 164.551 288 167.654M144 168.642C123.111 174.398 124 208.162 129.356 224C132.25 232.559 139.629 242.856 150 240.463C171.435 235.517 169.979 199.379 164.304 184C161.374 176.06 153.762 165.952 144 168.642z"/>
<path style="fill:#010101; stroke:none;" d="M143.662 341.157C139.859 343.652 149.528 349.843 151 351C160.997 358.86 171.304 366.422 182 373.308C208.97 390.671 235.71 386.791 265 377.659C271.482 375.638 284.586 374.208 289.338 369.176C291.836 366.53 288.081 365.452 285.981 365.728C281.246 366.35 276.512 368.51 272 369.999C243.566 379.384 215.152 387.478 188 370.575C176.551 363.447 165.716 355.287 155 347.116C152.797 345.436 146.827 339.081 143.662 341.157z"/>
</svg>
