<?xml version="1.0" standalone="yes"?>
<svg xmlns="http://www.w3.org/2000/svg" width="625" height="506">
<path style="fill:#fffefd; stroke:none;" d="M0 0L0 506L625 506L625 0L0 0z"/>
<path style="fill:#010101; stroke:none;" d="M495 21.4244C463.074 25.6286 420.525 42.0768 421.019 81C421.193 94.7652 428.122 107.642 438.004 116.91C442.411 121.043 450.882 124.342 453.262 130.043C455.115 134.484 454.171 155.291 461.059 154.203C471.211 152.599 478.789 141.451 489 139.408C496.075 137.993 504.641 140.414 512 139.91C536.273 138.248 562.945 129.015 578.1 109C594.734 87.0318 588.699 58.4381 568 41.4645C548.865 25.7736 519.506 18.1972 495 21.4244z"/>
<path style="fill:#23b14d; stroke:none;" d="M461 148C470.563 145.187 478.311 135.888 488 133.988C494.188 132.775 502.508 135.073 509 134.996C519.155 134.875 529.34 132.555 539 129.564C574.1 118.697 599.398 79.4783 568.961 49.0394C542.155 22.2321 492.771 19.6131 460 35.7562C445.788 42.7572 432.625 53.2664 427.774 69C422.683 85.5108 429.54 102.567 442.004 113.826C446.285 117.694 453.931 120.406 457.012 125.213C460.551 130.737 460.724 141.567 461 148z"/>
<path style="fill:#010101; stroke:none;" d="M491 77L480.136 78.6034L482.348 86L495 106L505.091 119.079L514.808 108L528.049 87L530.864 78.6034L520 77L520 50L518.397 40.0278L505 39L492.028 40.6034L491 51L491 77z"/>
<path style="fill:#ed1d25; stroke:none;" d="M496 44C496 55.8828 501.915 81.9438 486 82L505 113L506 113L525 82C509.085 81.9438 515 55.8828 515 44L496 44z"/>
<path style="fill:#010101; stroke:none;" d="M228 80.4244C184.753 86.1026 146.73 98.0439 112 125.666C93.1935 140.623 77.7214 159.463 65.3997 180C53.8618 199.23 45.7681 220.958 41.6111 243C37.3652 265.514 36.9351 288.351 40.2716 311C56.621 421.985 164.156 495.147 273 479.715C301.368 475.692 328.924 464.75 353 449.413C373.436 436.395 391.378 419.359 405.873 400C488.672 289.421 430.984 125.983 299 88.1412C276.818 81.7812 251.095 77.392 228 80.4244z"/>
<path style="fill:#7193bf; stroke:none;" d="M228 85.4244C185.571 90.9979 146.262 102.844 113 131.3C92.6197 148.736 75.303 169.934 63.2701 194C53.3931 213.754 47.3978 235.172 44.4252 257C27.345 382.416 141.443 490.69 265 475.715C359.343 464.28 435.763 385.844 439.961 290C444.188 193.478 374.185 105.774 279 88.5756C262.574 85.6077 244.685 83.2326 228 85.4244z"/>
<path style="fill:#010101; stroke:none;" d="M303 162.53C278.783 168.01 277.188 207.975 285.313 226C289.621 235.556 298.179 246.145 310 243.47C334.779 237.863 334.953 199.331 327.935 181C324.085 170.943 315.163 159.778 303 162.53M158 163.532C133.34 169.368 133.047 208.587 140.066 227C144.095 237.57 153.528 248.334 166 245.471C190.813 239.775 190.954 200.417 183.934 182C179.927 171.487 170.448 160.587 158 163.532z"/>
<path style="fill:#fffefd; stroke:none;" d="M303 167.654C283.221 173.754 283.472 207.81 289.465 223C292.624 231.009 300.008 241.427 310 238.346C329.822 232.235 329.501 198.244 323.536 183C320.388 174.953 313.059 164.551 303 167.654M159 168.642C138.111 174.398 139 208.162 144.356 224C147.25 232.559 154.629 242.856 165 240.463C186.435 235.517 184.979 199.379 179.304 184C176.374 176.06 168.762 165.952 159 168.642z"/>
<path style="fill:#010101; stroke:none;" d="M240 340.465C221.624 343.772 206.365 356.281 192 367.349C190.416 368.57 173.368 380.789 179.337 382.119C184.903 383.359 196.791 370.686 201 367.425C215.75 355.998 231.672 344.781 251 345.004C267.034 345.188 282.986 351.662 298 356.667C302.723 358.241 312.773 363.812 317.663 362.217C321.201 361.063 317.534 358.117 315.941 357.363C310.874 354.966 305.306 353.435 300 351.667C281.478 345.493 259.889 336.885 240 340.465z"/>
</svg>
